<svg viewBox="0 0 512.004 512.004" xmlns="http://www.w3.org/2000/svg"><title>Languages and Tools</title><g><g><path d="m209.459 381.041v30.597c0 11.701-5.607 22.566-14.816 28.709l-22.243 14.838h167.204l-22.243-14.838c-9.209-6.143-14.816-17.008-14.816-28.709v-30.597c-30.61 0-62.477 0-93.086 0z" fill="#b1dbfc"/><path d="m209.459 381.041v30.598c0 11.701-5.607 22.566-14.816 28.709l-22.244 14.838h53.968l.469-.313c9.209-6.143 14.816-17.008 14.816-28.709v-21.183c0-5.2 4.215-9.415 9.415-9.415h51.476v-14.525z" fill="#8bcaff"/><path d="m355.169 454.112h-198.335c-5.522 0-9.999 4.477-9.999 10v11.197c0 5.523 4.477 10 9.999 10h198.335c5.522 0 9.999-4.477 9.999-10v-11.197c0-5.523-4.477-10-9.999-10z" fill="#dfebfa"/><path d="m202.253 475.308v-11.197c0-5.523 4.477-10 9.999-10h-55.419c-5.523 0-9.999 4.477-9.999 10v11.197c0 5.523 4.477 10 9.999 10h55.419c-5.522 0-9.999-4.477-9.999-10z" fill="#b1dbfc"/><g><g><path d="m475.683 26.727h-439.364c-15.891 0-28.82 12.928-28.82 28.82v297.995c0 15.891 12.928 28.82 28.82 28.82h439.364c15.891 0 28.82-12.928 28.82-28.82v-297.995c0-15.891-12.928-28.82-28.82-28.82z" fill="#695d67"/></g></g><path d="m40.836 353.542v-297.995c0-15.891 12.928-28.82 28.819-28.82h-33.336c-15.891 0-28.82 12.928-28.82 28.82v297.995c0 15.891 12.928 28.82 28.82 28.82h33.336c-15.891-.001-28.819-12.929-28.819-28.82z" fill="#554e56"/><g><path d="m38.695 93.012v2 252.007c0 2.291 1.856 4.147 4.147 4.147h426.318c2.29 0 4.147-1.856 4.147-4.147 0-6.718 0-180.788 0-254.007z" fill="#dfebfa"/></g><path d="m68.698 347.018v-252.006-2h-30.003v2 252.007c0 2.291 1.856 4.147 4.147 4.147h30.002c-2.29-.001-4.146-1.857-4.146-4.148z" fill="#b1dbfc"/><path d="m469.161 57.923h-386.43v37.088h390.577c0-17.359 0-29.451 0-32.942-.001-2.29-1.857-4.146-4.147-4.146z" fill="#5cb3f8"/><path d="m83.731 57.923h-40.889c-2.29 0-4.147 1.856-4.147 4.147v32.942h45.035v-37.089z" fill="#ff656f"/><path d="m72.843 57.923h-30.001c-2.29 0-4.147 1.856-4.147 4.147v32.942h30.001v-32.942c.001-2.29 1.857-4.147 4.147-4.147z" fill="#ff4756"/><path d="m314.999 128.375h-50.724c-5.288 0-9.575 4.141-9.575 9.25v171c0 5.109 4.287 9.25 9.575 9.25h50.724c5.288 0 9.575-4.141 9.575-9.25v-171c0-5.109-4.287-9.25-9.575-9.25z" fill="#fec458"/><path d="m289.637 308.625v-171c0-5.109 4.287-9.25 9.575-9.25h-34.937c-5.288 0-9.575 4.141-9.575 9.25v171c0 5.109 4.287 9.25 9.575 9.25h34.937c-5.288 0-9.575-4.142-9.575-9.25z" fill="#f9ab49"/><path d="m254.7 176.204h69.875v90.863h-69.875z" fill="#ffe181"/><path d="m254.7 176.204h34.937v90.863h-34.937z" fill="#fec458"/><path d="m246.699 128.375h-49.28c-5.138 0-9.303 4.141-9.303 9.25v171c0 5.109 4.165 9.25 9.303 9.25h49.28c5.138 0 9.303-4.141 9.303-9.25v-171c-.001-5.109-4.166-9.25-9.303-9.25z" fill="#5cb3f8"/><path d="m222.059 308.625v-171c0-5.109 4.165-9.25 9.303-9.25h-33.942c-5.138 0-9.303 4.141-9.303 9.25v171c0 5.109 4.165 9.25 9.303 9.25h33.942c-5.138 0-9.303-4.142-9.303-9.25z" fill="#2fa2f6"/><path d="m381.751 128.375h-49c-5.109 0-9.25 4.141-9.25 9.25v171c0 5.109 4.141 9.25 9.25 9.25h49c5.109 0 9.25-4.141 9.25-9.25v-171c0-5.109-4.141-9.25-9.25-9.25z" fill="#00ba66"/><path d="m357.251 308.625v-171c0-5.109 4.141-9.25 9.25-9.25h-33.75c-5.109 0-9.25 4.141-9.25 9.25v171c0 5.109 4.141 9.25 9.25 9.25h33.75c-5.108 0-9.25-4.142-9.25-9.25z" fill="#04a85a"/><path d="m188.116 252.317h67.885v29.5h-67.885z" fill="#8bcaff"/><path d="m188.116 252.317h33.942v29.5h-33.942z" fill="#5cb3f8"/><path d="m188.116 161.454h67.885v29.5h-67.885z" fill="#8bcaff"/><path d="m188.116 161.454h33.942v29.5h-33.942z" fill="#5cb3f8"/><path d="m323.501 252.317h67.5v29.5h-67.5z" fill="#43cb8e"/><path d="m323.501 252.317h33.75v29.5h-33.75z" fill="#00ba66"/><path d="m323.501 161.454h67.5v29.5h-67.5z" fill="#43cb8e"/><path d="m323.501 161.454h33.75v29.5h-33.75z" fill="#00ba66"/><path d="m179.251 128.375h-49c-5.109 0-9.25 4.141-9.25 9.25v171c0 5.109 4.141 9.25 9.25 9.25h49c5.109 0 9.25-4.141 9.25-9.25v-171c0-5.109-4.141-9.25-9.25-9.25z" fill="#ff656f"/><path d="m154.751 308.625v-171c0-5.109 4.141-9.25 9.25-9.25h-33.75c-5.109 0-9.25 4.141-9.25 9.25v171c0 5.109 4.141 9.25 9.25 9.25h33.75c-5.108 0-9.25-4.142-9.25-9.25z" fill="#ff4756"/><path d="m121.001 176.204h67.5v90.863h-67.5z" fill="#ff7f87"/><path d="m121.001 176.204h33.75v90.863h-33.75z" fill="#ff656f"/></g><g><path d="m42.843 50.408c-6.422 0-11.646 5.225-11.646 11.646v284.949c0 6.422 5.225 11.646 11.646 11.646h426.318c6.422 0 11.646-5.225 11.646-11.646 0-12.676 0-260.121 0-284.949 0-6.422-5.225-11.646-11.646-11.646-17.637 0-408.642 0-426.318 0zm3.353 15h30.034v22.088h-30.034zm419.612 278.241h-419.612v-241.153h419.611v241.153zm0-256.153h-374.578v-22.088h374.577v22.088z"/><path d="m130.252 325.359h49c3.418 0 6.597-1.034 9.25-2.798 2.653 1.765 5.832 2.798 9.25 2.798h49c3.418 0 6.597-1.034 9.25-2.798 2.653 1.765 5.832 2.798 9.25 2.798h49c3.418 0 6.597-1.034 9.25-2.798 2.653 1.765 5.832 2.798 9.25 2.798h49c9.236 0 16.75-7.514 16.75-16.75 0-34.966 0-133.026 0-171 0-9.236-7.514-16.75-16.75-16.75h-49c-3.418 0-6.597 1.034-9.25 2.798-2.653-1.765-5.832-2.798-9.25-2.798h-49c-3.418 0-6.597 1.034-9.25 2.798-2.653-1.765-5.832-2.798-9.25-2.798h-49c-3.418 0-6.597 1.034-9.25 2.798-2.653-1.765-5.832-2.798-9.25-2.798h-49c-9.236 0-16.75 7.514-16.75 16.75v129.442 41.558c0 9.236 7.514 16.75 16.75 16.75zm200.75-187.75c0-.965.785-1.75 1.75-1.75h49c.965 0 1.75.785 1.75 1.75v16.329h-52.5zm0 31.329h52.5v14.5h-52.5c0-5.247 0-9.253 0-14.5zm0 29.5h52.5v46.363h-52.5zm0 61.363h52.5v14.5h-52.5c0-5.247 0-9.253 0-14.5zm0 29.5h52.5v19.308c0 .965-.785 1.75-1.75 1.75h-49c-.965 0-1.75-.785-1.75-1.75zm-67.5-151.692c0-.965.785-1.75 1.75-1.75h49c.965 0 1.75.785 1.75 1.75v31.079h-52.5c0-12.043 0-19.173 0-31.079zm0 46.079h52.5v75.863h-52.5c0-8.272 0-68.17 0-75.863zm0 90.863h52.5v34.058c0 .965-.785 1.75-1.75 1.75h-49c-.965 0-1.75-.785-1.75-1.75 0-3.809 0 1.927 0-34.058zm-67.5-136.942c0-.965.785-1.75 1.75-1.75h49c.965 0 1.75.785 1.75 1.75v16.329h-52.5zm0 31.329h52.5v14.5h-52.5c0-5.247 0-9.253 0-14.5zm0 29.5h52.5v46.363h-52.5zm0 61.363h52.5v14.5h-52.5c0-5.247 0-9.253 0-14.5zm0 29.5h52.5v19.308c0 .965-.785 1.75-1.75 1.75h-49c-.965 0-1.75-.785-1.75-1.75zm-67.5-151.692c0-.965.785-1.75 1.75-1.75h49c.965 0 1.75.785 1.75 1.75v31.079h-52.5zm0 46.079h52.5v75.863h-52.5zm0 90.863h52.5v34.058c0 .965-.785 1.75-1.75 1.75h-49c-.965 0-1.75-.785-1.75-1.75z"/><path d="m475.684 19.211h-439.365c-20.026 0-36.319 16.293-36.319 36.32v297.995c0 20.027 16.293 36.32 36.319 36.32h165.64v21.777c0 9.137-4.397 17.747-11.478 22.47l-18.744 12.503h-14.903c-9.649 0-17.499 7.85-17.499 17.5v11.197c0 9.649 7.85 17.5 17.499 17.5h81.668c4.143 0 7.5-3.358 7.5-7.5s-3.357-7.5-7.5-7.5h-81.668c-1.378 0-2.499-1.122-2.499-2.5v-11.197c0-1.378 1.121-2.5 2.499-2.5h198.336c1.378 0 2.499 1.121 2.499 2.5v11.197c0 1.378-1.121 2.5-2.499 2.5h-81.668c-4.143 0-7.5 3.358-7.5 7.5s3.357 7.5 7.5 7.5h81.668c9.649 0 17.499-7.851 17.499-17.5v-11.197c0-9.649-7.85-17.5-17.499-17.5h-14.903l-18.744-12.503c-7.08-4.723-11.479-13.333-11.479-22.47v-21.777h165.64c20.027 0 36.32-16.293 36.32-36.32v-122.034c0-4.142-3.357-7.5-7.5-7.5s-7.5 3.358-7.5 7.5v122.034c0 11.756-9.564 21.32-21.32 21.32-11.908 0-427.915 0-439.364 0-11.756 0-21.319-9.564-21.319-21.32v-297.995c0-11.756 9.563-21.32 21.319-21.32h439.364c11.756 0 21.32 9.564 21.32 21.32v140.96c0 4.142 3.357 7.5 7.5 7.5s7.5-3.358 7.5-7.5v-140.96c0-20.027-16.293-36.32-36.32-36.32zm-258.725 392.412v-21.777h78.085v21.777c0 13.951 6.502 27.18 18.192 34.973h-114.468c11.699-7.799 18.191-21.032 18.191-34.973z"/></g></g></svg>
